<svg width="16" height="16" viewBox="0 0 16 16" fill="none" xmlns="http://www.w3.org/2000/svg">
<g clip-path="url(#clip0_2031_174)">
<path d="M8 0C6.41775 0 4.87104 0.469192 3.55544 1.34824C2.23985 2.22729 1.21447 3.47672 0.608967 4.93853C0.00346629 6.40034 -0.15496 8.00887 0.153721 9.56072C0.462403 11.1126 1.22433 12.538 2.34315 13.6569C3.46197 14.7757 4.88743 15.5376 6.43928 15.8463C7.99113 16.155 9.59966 15.9965 11.0615 15.391C12.5233 14.7855 13.7727 13.7602 14.6518 12.4446C15.5308 11.129 16 9.58225 16 8C15.9977 5.87897 15.1541 3.84547 13.6543 2.34568C12.1545 0.845886 10.121 0.00229405 8 0V0ZM8 14C6.81332 14 5.65328 13.6481 4.66658 12.9888C3.67989 12.3295 2.91085 11.3925 2.45673 10.2961C2.0026 9.19975 1.88378 7.99335 2.11529 6.82946C2.3468 5.66557 2.91825 4.59647 3.75736 3.75736C4.59648 2.91824 5.66558 2.3468 6.82946 2.11529C7.99335 1.88378 9.19975 2.0026 10.2961 2.45672C11.3925 2.91085 12.3295 3.67988 12.9888 4.66658C13.6481 5.65327 14 6.81331 14 8C13.9982 9.59076 13.3655 11.1159 12.2407 12.2407C11.1159 13.3655 9.59076 13.9982 8 14Z" fill="#0165FC"/>
<path d="M7.00001 7.36994L5.40001 8.36993C5.28867 8.43964 5.19215 8.53061 5.11597 8.63763C5.03979 8.74465 4.98545 8.86563 4.95604 8.99366C4.92664 9.12169 4.92274 9.25426 4.94458 9.38379C4.96643 9.51333 5.01358 9.63729 5.08334 9.7486C5.15305 9.85994 5.24401 9.95646 5.35104 10.0326C5.45806 10.1088 5.57904 10.1632 5.70707 10.1926C5.8351 10.222 5.96767 10.2259 6.0972 10.204C6.22674 10.1822 6.3507 10.135 6.46201 10.0653L8.37468 8.86527C8.56658 8.74501 8.72469 8.57786 8.8341 8.37958C8.94351 8.18129 9.0006 7.9584 9.00001 7.73194V5.18127C9.00001 4.91606 8.89465 4.6617 8.70712 4.47417C8.51958 4.28663 8.26523 4.18127 8.00001 4.18127C7.73479 4.18127 7.48044 4.28663 7.2929 4.47417C7.10537 4.6617 7.00001 4.91606 7.00001 5.18127V7.36994Z" fill="#0165FC"/>
</g>
<defs>
<clipPath id="clip0_2031_174">
<rect width="16" height="16" fill="white"/>
</clipPath>
</defs>
</svg>
